# xmcd
#
# Track frame offsets: 
#        150
#        13284
#        28914
#        42368
#        55302
#        70854
#        92538
#        102116
#        117647
#        134088
#        146936
#        165540
#
# Disc length: 2459 seconds
#
# Revision: 0
# Processed by: cddbd v1.5.1PL2 Copyright (c) Steve Scherf et al.
# Submitted via: ExactAudioCopy v0.95b4
#
DISCID=b409990c
DTITLE=Slope Valley - Meet Slope Valley
DYEAR=1900
DGENRE=Bluegrass
TTITLE0=Harold's Super Service
TTITLE1=I Heard My Mother Call
TTITLE2=Holding Up The Ladder
TTITLE3=I'll Break Out Tonight
TTITLE4=Another Night
TTITLE5=I'm Working On A Building
TTITLE6=Charlie's Banjo Breakdown
TTITLE7=Honky Tonk Woman
TTITLE8=Blue Moon Of Kentucky
TTITLE9=Heavenly Father
TTITLE10=Circle Be Unbroken
TTITLE11=The Rooster Song
EXTD=
EXTT0=
EXTT1=
EXTT2=
EXTT3=
EXTT4=
EXTT5=
EXTT6=
EXTT7=
EXTT8=
EXTT9=
EXTT10=
EXTT11=
PLAYORDER=
